<svg version="1.1" viewBox="303.0 85.0 350.0 370.0" fill="none" stroke="none" stroke-linecap="square" stroke-miterlimit="10" xmlns:xlink="http://www.w3.org/1999/xlink" xmlns="http://www.w3.org/2000/svg"><clipPath id="g15e9c243a5f_0_296.0"><path d="m0 0l960.0 0l0 540.0l-960.0 0l0 -540.0z" clip-rule="nonzero"/></clipPath><g clip-path="url(#g15e9c243a5f_0_296.0)"><path fill="#ffffff" d="m0 0l960.0 0l0 540.0l-960.0 0z" fill-rule="evenodd"/><path fill="#ffc000" d="m324.37796 270.0l0 0c0 -85.94768 69.67435 -155.62204 155.62204 -155.62204l0 0c41.27356 0 80.85663 16.395851 110.04138 45.580635c29.184814 29.1848 45.58069 68.76788 45.58069 110.04141l0 0c0 85.94769 -69.67438 155.62204 -155.62207 155.62204l0 0c-85.94769 0 -155.62204 -69.67435 -155.62204 -155.62204z" fill-rule="evenodd"/><path fill="#000000" fill-opacity="0.0" d="m365.35434 226.3622l246.1417 0l0 87.27559l-246.1417 0z" fill-rule="evenodd"/><path fill="#ffffff" d="m380.68246 253.43845q-1.71875 0 -3.015625 -0.671875q-1.296875 -0.671875 -2.015625 -1.84375q-0.703125 -1.171875 -0.703125 -2.65625q0 -1.515625 0.703125 -2.671875q0.703125 -1.171875 1.90625 -1.828125q1.21875 -0.671875 2.75 -0.671875q1.46875 0 2.65625 0.625q1.1875 0.625 1.875 1.796875q0.6875 1.15625 0.6875 2.78125q0 0.171875 -0.015625 0.390625q-0.015625 0.203125 -0.03125 0.390625l-8.15625 0l0 -1.6875l6.625 0l-1.125 0.5q0 -0.78125 -0.328125 -1.359375q-0.3125 -0.578125 -0.875 -0.90625q-0.546875 -0.328125 -1.296875 -0.328125q-0.75 0 -1.328125 0.328125q-0.5625 0.328125 -0.875 0.921875q-0.3125 0.578125 -0.3125 1.375l0 0.453125q0 0.828125 0.359375 1.453125q0.359375 0.625 1.015625 0.953125q0.671875 0.3125 1.578125 0.3125q0.796875 0 1.390625 -0.234375q0.609375 -0.25 1.125 -0.734375l1.546875 1.6875q-0.6875 0.78125 -1.734375 1.203125q-1.046875 0.421875 -2.40625 0.421875zm19.647095 -10.34375q1.1875 0 2.109375 0.484375q0.921875 0.46875 1.453125 1.453125q0.53125 0.96875 0.53125 2.5l0 5.75l-2.90625 0l0 -5.296875q0 -1.21875 -0.5 -1.796875q-0.5 -0.578125 -1.421875 -0.578125q-0.640625 0 -1.140625 0.296875q-0.5 0.28125 -0.78125 0.859375q-0.28125 0.578125 -0.28125 1.484375l0 5.03125l-2.90625 0l0 -5.296875q0 -1.21875 -0.5 -1.796875q-0.484375 -0.578125 -1.40625 -0.578125q-0.625 0 -1.140625 0.296875q-0.5 0.28125 -0.78125 0.859375q-0.28125 0.578125 -0.28125 1.484375l0 5.03125l-2.90625 0l0 -10.03125l2.78125 0l0 2.734375l-0.53125 -0.796875q0.53125 -1.03125 1.484375 -1.5625q0.96875 -0.53125 2.203125 -0.53125q1.375 0 2.40625 0.703125q1.046875 0.703125 1.375 2.140625l-1.03125 -0.28125q0.515625 -1.1875 1.625 -1.875q1.109375 -0.6875 2.546875 -0.6875zm12.648529 10.34375q-1.28125 0 -2.234375 -0.5625q-0.9375 -0.5625 -1.46875 -1.703125q-0.53125 -1.15625 -0.53125 -2.90625q0 -1.78125 0.5 -2.90625q0.5 -1.140625 1.453125 -1.703125q0.953125 -0.5625 2.28125 -0.5625q1.40625 0 2.53125 0.640625q1.140625 0.640625 1.796875 1.8125q0.671875 1.15625 0.671875 2.71875q0 1.578125 -0.671875 2.734375q-0.65625 1.15625 -1.796875 1.796875q-1.125 0.640625 -2.53125 0.640625zm-5.9375 3.46875l0 -13.65625l2.78125 0l0 2.046875l-0.0625 2.984375l0.1875 2.96875l0 5.65625l-2.90625 0zm5.421875 -5.859375q0.734375 0 1.296875 -0.328125q0.578125 -0.34375 0.921875 -0.96875q0.34375 -0.625 0.34375 -1.484375q0 -0.875 -0.34375 -1.484375q-0.34375 -0.625 -0.921875 -0.953125q-0.5625 -0.34375 -1.296875 -0.34375q-0.71875 0 -1.296875 0.34375q-0.578125 0.328125 -0.921875 0.953125q-0.328125 0.609375 -0.328125 1.484375q0 0.859375 0.328125 1.484375q0.34375 0.625 0.921875 0.96875q0.578125 0.328125 1.296875 0.328125zm12.232178 2.390625q-1.609375 0 -2.859375 -0.671875q-1.234375 -0.671875 -1.953125 -1.84375q-0.71875 -1.171875 -0.71875 -2.65625q0 -1.515625 0.71875 -2.671875q0.71875 -1.171875 1.953125 -1.828125q1.25 -0.671875 2.859375 -0.671875q1.578125 0 2.828125 0.671875q1.25 0.65625 1.953125 1.8125q0.71875 1.15625 0.71875 2.6875q0 1.484375 -0.71875 2.65625q-0.703125 1.171875 -1.953125 1.84375q-1.25 0.671875 -2.828125 0.671875zm0 -2.390625q0.71875 0 1.296875 -0.328125q0.578125 -0.34375 0.90625 -0.96875q0.34375 -0.625 0.34375 -1.484375q0 -0.875 -0.34375 -1.484375q-0.328125 -0.625 -0.90625 -0.953125q-0.578125 -0.34375 -1.296875 -0.34375q-0.734375 0 -1.3125 0.34375q-0.578125 0.328125 -0.921875 0.953125q-0.34375 0.609375 -0.34375 1.484375q0 0.859375 0.34375 1.484375q0.34375 0.625 0.921875 0.96875q0.578125 0.328125 1.3125 0.328125zm9.455475 2.234375l-3.625 -10.03125l2.75 0l3.0 8.625l-1.3125 0l3.140625 -8.625l2.46875 0l3.03125 8.625l-1.296875 0l3.09375 -8.625l2.578125 0l-3.640625 10.03125l-2.828125 0l-2.65625 -7.40625l0.859375 0l-2.765625 7.40625l-2.796875 0zm19.888428 0.15625q-1.71875 0 -3.015625 -0.671875q-1.296875 -0.671875 -2.015625 -1.84375q-0.703125 -1.171875 -0.703125 -2.65625q0 -1.515625 0.703125 -2.671875q0.703125 -1.171875 1.90625 -1.828125q1.21875 -0.671875 2.75 -0.671875q1.46875 0 2.65625 0.625q1.1875 0.625 1.875 1.796875q0.6875 1.15625 0.6875 2.78125q0 0.171875 -0.015625 0.390625q-0.015625 0.203125 -0.03125 0.390625l-8.15625 0l0 -1.6875l6.625 0l-1.125 0.5q0 -0.78125 -0.328125 -1.359375q-0.3125 -0.578125 -0.875 -0.90625q-0.546875 -0.328125 -1.296875 -0.328125q-0.75 0 -1.328125 0.328125q-0.5625 0.328125 -0.875 0.921875q-0.3125 0.578125 -0.3125 1.375l0 0.453125q0 0.828125 0.359375 1.453125q0.359375 0.625 1.015625 0.953125q0.671875 0.3125 1.578125 0.3125q0.796875 0 1.390625 -0.234375q0.609375 -0.25 1.125 -0.734375l1.546875 1.6875q-0.6875 0.78125 -1.734375 1.203125q-1.046875 0.421875 -2.40625 0.421875zm6.7877197 -0.15625l0 -10.03125l2.78125 0l0 2.828125l-0.390625 -0.8125q0.4375 -1.0625 1.421875 -1.609375q1.0 -0.5625 2.421875 -0.5625l0 2.6875q-0.1875 -0.015625 -0.34375 -0.015625q-0.140625 -0.015625 -0.3125 -0.015625q-1.1875 0 -1.9375 0.6875q-0.734375 0.671875 -0.734375 2.109375l0 4.734375l-2.90625 0zm7.9661865 0l0 -10.03125l2.90625 0l0 10.03125l-2.90625 0zm1.453125 -11.4375q-0.796875 0 -1.3125 -0.46875q-0.5 -0.46875 -0.5 -1.15625q0 -0.6875 0.5 -1.15625q0.515625 -0.46875 1.3125 -0.46875q0.8125 0 1.3125 0.4375q0.5 0.4375 0.5 1.140625q0 0.71875 -0.5 1.203125q-0.484375 0.46875 -1.3125 0.46875zm10.256165 1.25q1.203125 0 2.140625 0.484375q0.9375 0.46875 1.484375 1.453125q0.546875 0.96875 0.546875 2.5l0 5.75l-2.921875 0l0 -5.296875q0 -1.21875 -0.53125 -1.796875q-0.53125 -0.578125 -1.5 -0.578125q-0.6875 0 -1.234375 0.296875q-0.546875 0.28125 -0.859375 0.890625q-0.3125 0.59375 -0.3125 1.515625l0 4.96875l-2.90625 0l0 -10.03125l2.78125 0l0 2.78125l-0.53125 -0.84375q0.546875 -1.015625 1.546875 -1.546875q1.015625 -0.546875 2.296875 -0.546875zm11.5911255 13.953125q-1.421875 0 -2.734375 -0.34375q-1.3125 -0.34375 -2.1875 -1.03125l1.15625 -2.09375q0.625 0.53125 1.609375 0.828125q0.984375 0.3125 1.9375 0.3125q1.546875 0 2.234375 -0.6875q0.703125 -0.6875 0.703125 -2.0625l0 -1.5l0.1875 -2.515625l-0.03125 -2.546875l0 -2.15625l2.765625 0l0 8.359375q0 2.796875 -1.46875 4.109375q-1.453125 1.328125 -4.171875 1.328125zm-0.453125 -4.25q-1.390625 0 -2.53125 -0.609375q-1.125 -0.609375 -1.8125 -1.6875q-0.671875 -1.09375 -0.671875 -2.546875q0 -1.484375 0.671875 -2.578125q0.6875 -1.09375 1.8125 -1.6875q1.140625 -0.59375 2.53125 -0.59375q1.28125 0 2.25 0.515625q0.96875 0.515625 1.5 1.59375q0.546875 1.0625 0.546875 2.75q0 1.65625 -0.546875 2.734375q-0.53125 1.0625 -1.5 1.59375q-0.96875 0.515625 -2.25 0.515625zm0.578125 -2.390625q0.765625 0 1.359375 -0.296875q0.609375 -0.3125 0.9375 -0.875q0.34375 -0.5625 0.34375 -1.28125q0 -0.75 -0.34375 -1.296875q-0.328125 -0.5625 -0.9375 -0.859375q-0.59375 -0.3125 -1.359375 -0.3125q-0.765625 0 -1.359375 0.3125q-0.59375 0.296875 -0.9375 0.859375q-0.34375 0.546875 -0.34375 1.296875q0 0.71875 0.34375 1.28125q0.34375 0.5625 0.9375 0.875q0.59375 0.296875 1.359375 0.296875z" fill-rule="nonzero"/><path fill="#ffffff" d="m380.68246 275.83844q-1.71875 0 -3.015625 -0.671875q-1.296875 -0.671875 -2.015625 -1.84375q-0.703125 -1.171875 -0.703125 -2.65625q0 -1.515625 0.703125 -2.671875q0.703125 -1.171875 1.90625 -1.828125q1.21875 -0.671875 2.75 -0.671875q1.46875 0 2.65625 0.625q1.1875 0.625 1.875 1.796875q0.6875 1.15625 0.6875 2.78125q0 0.171875 -0.015625 0.390625q-0.015625 0.203125 -0.03125 0.390625l-8.15625 0l0 -1.6875l6.625 0l-1.125 0.5q0 -0.78125 -0.328125 -1.359375q-0.3125 -0.578125 -0.875 -0.90625q-0.546875 -0.328125 -1.296875 -0.328125q-0.75 0 -1.328125 0.328125q-0.5625 0.328125 -0.875 0.921875q-0.3125 0.578125 -0.3125 1.375l0 0.453125q0 0.828125 0.359375 1.453125q0.359375 0.625 1.015625 0.953125q0.671875 0.3125 1.578125 0.3125q0.796875 0 1.390625 -0.234375q0.609375 -0.25 1.125 -0.734375l1.546875 1.6875q-0.6875 0.78125 -1.734375 1.203125q-1.046875 0.421875 -2.40625 0.421875zm12.88147 -10.34375q1.203125 0 2.140625 0.484375q0.9375 0.46875 1.484375 1.453125q0.546875 0.96875 0.546875 2.5l0 5.75l-2.921875 0l0 -5.296875q0 -1.21875 -0.53125 -1.796875q-0.53125 -0.578125 -1.5 -0.578125q-0.6875 0 -1.234375 0.296875q-0.546875 0.28125 -0.859375 0.890625q-0.3125 0.59375 -0.3125 1.515625l0 4.96875l-2.90625 0l0 -10.03125l2.78125 0l0 2.78125l-0.53125 -0.84375q0.546875 -1.015625 1.546875 -1.546875q1.015625 -0.546875 2.296875 -0.546875zm10.907074 10.34375q-1.78125 0 -2.765625 -0.90625q-0.984375 -0.90625 -0.984375 -2.703125l0 -8.796875l2.90625 0l0 8.765625q0 0.625 0.328125 0.96875q0.34375 0.34375 0.921875 0.34375q0.6875 0 1.171875 -0.359375l0.78125 2.046875q-0.4375 0.3125 -1.0625 0.484375q-0.625 0.15625 -1.296875 0.15625zm-5.296875 -7.734375l0 -2.234375l6.953125 0l0 2.234375l-6.953125 0zm13.970001 7.734375q-1.71875 0 -3.015625 -0.671875q-1.296875 -0.671875 -2.015625 -1.84375q-0.703125 -1.171875 -0.703125 -2.65625q0 -1.515625 0.703125 -2.671875q0.703125 -1.171875 1.90625 -1.828125q1.21875 -0.671875 2.75 -0.671875q1.46875 0 2.65625 0.625q1.1875 0.625 1.875 1.796875q0.6875 1.15625 0.6875 2.78125q0 0.171875 -0.015625 0.390625q-0.015625 0.203125 -0.03125 0.390625l-8.15625 0l0 -1.6875l6.625 0l-1.125 0.5q0 -0.78125 -0.328125 -1.359375q-0.3125 -0.578125 -0.875 -0.90625q-0.546875 -0.328125 -1.296875 -0.328125q-0.75 0 -1.328125 0.328125q-0.5625 0.328125 -0.875 0.921875q-0.3125 0.578125 -0.3125 1.375l0 0.453125q0 0.828125 0.359375 1.453125q0.359375 0.625 1.015625 0.953125q0.671875 0.3125 1.578125 0.3125q0.796875 0 1.390625 -0.234375q0.609375 -0.25 1.125 -0.734375l1.546875 1.6875q-0.6875 0.78125 -1.734375 1.203125q-1.046875 0.421875 -2.40625 0.421875zm6.7877197 -0.15625l0 -10.03125l2.78125 0l0 2.828125l-0.390625 -0.8125q0.4375 -1.0625 1.421875 -1.609375q1.0 -0.5625 2.421875 -0.5625l0 2.6875q-0.1875 -0.015625 -0.34375 -0.015625q-0.140625 -0.015625 -0.3125 -0.015625q-1.1875 0 -1.9375 0.6875q-0.734375 0.671875 -0.734375 2.109375l0 4.734375l-2.90625 0zm13.903687 0.15625q-1.28125 0 -2.234375 -0.5625q-0.9375 -0.5625 -1.46875 -1.703125q-0.53125 -1.15625 -0.53125 -2.90625q0 -1.78125 0.5 -2.90625q0.5 -1.140625 1.453125 -1.703125q0.953125 -0.5625 2.28125 -0.5625q1.40625 0 2.53125 0.640625q1.140625 0.640625 1.796875 1.8125q0.671875 1.15625 0.671875 2.71875q0 1.578125 -0.671875 2.734375q-0.65625 1.15625 -1.796875 1.796875q-1.125 0.640625 -2.53125 0.640625zm-5.9375 3.46875l0 -13.65625l2.78125 0l0 2.046875l-0.0625 2.984375l0.1875 2.96875l0 5.65625l-2.90625 0zm5.421875 -5.859375q0.734375 0 1.296875 -0.328125q0.578125 -0.34375 0.921875 -0.96875q0.34375 -0.625 0.34375 -1.484375q0 -0.875 -0.34375 -1.484375q-0.34375 -0.625 -0.921875 -0.953125q-0.5625 -0.34375 -1.296875 -0.34375q-0.71875 0 -1.296875 0.34375q-0.578125 0.328125 -0.921875 0.953125q-0.328125 0.609375 -0.328125 1.484375q0 0.859375 0.328125 1.484375q0.34375 0.625 0.921875 0.96875q0.578125 0.328125 1.296875 0.328125zm7.4509583 2.234375l0 -10.03125l2.78125 0l0 2.828125l-0.390625 -0.8125q0.4375 -1.0625 1.421875 -1.609375q1.0 -0.5625 2.421875 -0.5625l0 2.6875q-0.1875 -0.015625 -0.34375 -0.015625q-0.140625 -0.015625 -0.3125 -0.015625q-1.1875 0 -1.9375 0.6875q-0.734375 0.671875 -0.734375 2.109375l0 4.734375l-2.90625 0zm7.9661865 0l0 -10.03125l2.90625 0l0 10.03125l-2.90625 0zm1.453125 -11.4375q-0.796875 0 -1.3125 -0.46875q-0.5 -0.46875 -0.5 -1.15625q0 -0.6875 0.5 -1.15625q0.515625 -0.46875 1.3125 -0.46875q0.8125 0 1.3125 0.4375q0.5 0.4375 0.5 1.140625q0 0.71875 -0.5 1.203125q-0.484375 0.46875 -1.3125 0.46875zm7.5374146 11.59375q-1.28125 0 -2.46875 -0.3125q-1.1875 -0.3125 -1.875 -0.78125l0.96875 -2.078125q0.6875 0.421875 1.625 0.703125q0.953125 0.265625 1.859375 0.265625q1.015625 0 1.421875 -0.234375q0.421875 -0.25 0.421875 -0.6875q0 -0.359375 -0.328125 -0.53125q-0.3125 -0.171875 -0.859375 -0.265625q-0.546875 -0.09375 -1.1875 -0.1875q-0.640625 -0.09375 -1.296875 -0.25q-0.65625 -0.15625 -1.203125 -0.46875q-0.53125 -0.328125 -0.859375 -0.859375q-0.328125 -0.546875 -0.328125 -1.40625q0 -0.953125 0.546875 -1.671875q0.5625 -0.734375 1.609375 -1.15625q1.046875 -0.421875 2.5 -0.421875q1.015625 0 2.078125 0.234375q1.0625 0.21875 1.78125 0.640625l-0.96875 2.078125q-0.734375 -0.4375 -1.46875 -0.59375q-0.734375 -0.15625 -1.421875 -0.15625q-0.96875 0 -1.421875 0.265625q-0.453125 0.25 -0.453125 0.671875q0 0.375 0.328125 0.5625q0.328125 0.171875 0.859375 0.296875q0.546875 0.109375 1.1875 0.203125q0.65625 0.078125 1.296875 0.25q0.65625 0.15625 1.1875 0.46875q0.53125 0.296875 0.859375 0.828125q0.34375 0.53125 0.34375 1.390625q0 0.9375 -0.5625 1.65625q-0.546875 0.71875 -1.609375 1.140625q-1.046875 0.40625 -2.5625 0.40625zm11.515839 0q-1.71875 0 -3.015625 -0.671875q-1.296875 -0.671875 -2.015625 -1.84375q-0.703125 -1.171875 -0.703125 -2.65625q0 -1.515625 0.703125 -2.671875q0.703125 -1.171875 1.90625 -1.828125q1.21875 -0.671875 2.75 -0.671875q1.46875 0 2.65625 0.625q1.1875 0.625 1.875 1.796875q0.6875 1.15625 0.6875 2.78125q0 0.171875 -0.015625 0.390625q-0.015625 0.203125 -0.03125 0.390625l-8.15625 0l0 -1.6875l6.625 0l-1.125 0.5q0 -0.78125 -0.328125 -1.359375q-0.3125 -0.578125 -0.875 -0.90625q-0.546875 -0.328125 -1.296875 -0.328125q-0.75 0 -1.328125 0.328125q-0.5625 0.328125 -0.875 0.921875q-0.3125 0.578125 -0.3125 1.375l0 0.453125q0 0.828125 0.359375 1.453125q0.359375 0.625 1.015625 0.953125q0.671875 0.3125 1.578125 0.3125q0.796875 0 1.390625 -0.234375q0.609375 -0.25 1.125 -0.734375l1.546875 1.6875q-0.6875 0.78125 -1.734375 1.203125q-1.046875 0.421875 -2.40625 0.421875zm10.16272 0q-1.28125 0 -2.46875 -0.3125q-1.1875 -0.3125 -1.875 -0.78125l0.96875 -2.078125q0.6875 0.421875 1.625 0.703125q0.953125 0.265625 1.859375 0.265625q1.015625 0 1.421875 -0.234375q0.421875 -0.25 0.421875 -0.6875q0 -0.359375 -0.328125 -0.53125q-0.3125 -0.171875 -0.859375 -0.265625q-0.546875 -0.09375 -1.1875 -0.1875q-0.640625 -0.09375 -1.296875 -0.25q-0.65625 -0.15625 -1.203125 -0.46875q-0.53125 -0.328125 -0.859375 -0.859375q-0.328125 -0.546875 -0.328125 -1.40625q0 -0.953125 0.546875 -1.671875q0.5625 -0.734375 1.609375 -1.15625q1.046875 -0.421875 2.5 -0.421875q1.015625 0 2.078125 0.234375q1.0625 0.21875 1.78125 0.640625l-0.96875 2.078125q-0.734375 -0.4375 -1.46875 -0.59375q-0.734375 -0.15625 -1.421875 -0.15625q-0.96875 0 -1.421875 0.265625q-0.453125 0.25 -0.453125 0.671875q0 0.375 0.328125 0.5625q0.328125 0.171875 0.859375 0.296875q0.546875 0.109375 1.1875 0.203125q0.65625 0.078125 1.296875 0.25q0.65625 0.15625 1.1875 0.46875q0.53125 0.296875 0.859375 0.828125q0.34375 0.53125 0.34375 1.390625q0 0.9375 -0.5625 1.65625q-0.546875 0.71875 -1.609375 1.140625q-1.046875 0.40625 -2.5625 0.40625zm15.920563 0q-1.78125 0 -2.765625 -0.90625q-0.984375 -0.90625 -0.984375 -2.703125l0 -8.796875l2.90625 0l0 8.765625q0 0.625 0.328125 0.96875q0.34375 0.34375 0.921875 0.34375q0.6875 0 1.171875 -0.359375l0.78125 2.046875q-0.4375 0.3125 -1.0625 0.484375q-0.625 0.15625 -1.296875 0.15625zm-5.296875 -7.734375l0 -2.234375l6.953125 0l0 2.234375l-6.953125 0zm15.396698 -2.609375q1.203125 0 2.140625 0.484375q0.9375 0.46875 1.484375 1.453125q0.546875 0.96875 0.546875 2.5l0 5.75l-2.921875 0l0 -5.296875q0 -1.21875 -0.53125 -1.796875q-0.53125 -0.578125 -1.5 -0.578125q-0.6875 0 -1.234375 0.296875q-0.546875 0.28125 -0.859375 0.890625q-0.3125 0.59375 -0.3125 1.515625l0 4.96875l-2.90625 0l0 -13.84375l2.90625 0l0 6.59375l-0.65625 -0.84375q0.546875 -1.015625 1.546875 -1.546875q1.015625 -0.546875 2.296875 -0.546875zm6.797699 10.1875l0 -10.03125l2.78125 0l0 2.828125l-0.390625 -0.8125q0.4375 -1.0625 1.421875 -1.609375q1.0 -0.5625 2.421875 -0.5625l0 2.6875q-0.1875 -0.015625 -0.34375 -0.015625q-0.140625 -0.015625 -0.3125 -0.015625q-1.1875 0 -1.9375 0.6875q-0.734375 0.671875 -0.734375 2.109375l0 4.734375l-2.90625 0zm12.654114 0.15625q-1.609375 0 -2.859375 -0.671875q-1.234375 -0.671875 -1.953125 -1.84375q-0.71875 -1.171875 -0.71875 -2.65625q0 -1.515625 0.71875 -2.671875q0.71875 -1.171875 1.953125 -1.828125q1.25 -0.671875 2.859375 -0.671875q1.578125 0 2.828125 0.671875q1.25 0.65625 1.953125 1.8125q0.71875 1.15625 0.71875 2.6875q0 1.484375 -0.71875 2.65625q-0.703125 1.171875 -1.953125 1.84375q-1.25 0.671875 -2.828125 0.671875zm0 -2.390625q0.71875 0 1.296875 -0.328125q0.578125 -0.34375 0.90625 -0.96875q0.34375 -0.625 0.34375 -1.484375q0 -0.875 -0.34375 -1.484375q-0.328125 -0.625 -0.90625 -0.953125q-0.578125 -0.34375 -1.296875 -0.34375q-0.734375 0 -1.3125 0.34375q-0.578125 0.328125 -0.921875 0.953125q-0.34375 0.609375 -0.34375 1.484375q0 0.859375 0.34375 1.484375q0.34375 0.625 0.921875 0.96875q0.578125 0.328125 1.3125 0.328125zm9.455505 2.234375l-3.625 -10.03125l2.75 0l3.0 8.625l-1.3125 0l3.140625 -8.625l2.46875 0l3.03125 8.625l-1.296875 0l3.09375 -8.625l2.578125 0l-3.640625 10.03125l-2.828125 0l-2.65625 -7.40625l0.859375 0l-2.765625 7.40625l-2.796875 0z" fill-rule="nonzero"/><path fill="#ffffff" d="m380.0106 298.23843q-1.421875 0 -2.5625 -0.640625q-1.140625 -0.65625 -1.796875 -1.8125q-0.65625 -1.15625 -0.65625 -2.71875q0 -1.59375 0.65625 -2.75q0.65625 -1.15625 1.796875 -1.78125q1.140625 -0.640625 2.5625 -0.640625q1.265625 0 2.21875 0.5625q0.953125 0.5625 1.46875 1.703125q0.53125 1.125 0.53125 2.90625q0 1.75 -0.515625 2.90625q-0.5 1.140625 -1.4375 1.703125q-0.9375 0.5625 -2.265625 0.5625zm0.5 -2.390625q0.703125 0 1.28125 -0.328125q0.578125 -0.34375 0.921875 -0.96875q0.359375 -0.625 0.359375 -1.484375q0 -0.875 -0.359375 -1.484375q-0.34375 -0.625 -0.921875 -0.953125q-0.578125 -0.34375 -1.28125 -0.34375q-0.734375 0 -1.3125 0.34375q-0.578125 0.328125 -0.921875 0.953125q-0.34375 0.609375 -0.34375 1.484375q0 0.859375 0.34375 1.484375q0.34375 0.625 0.921875 0.96875q0.578125 0.328125 1.3125 0.328125zm2.625 2.234375l0 -2.046875l0.0625 -2.984375l-0.1875 -2.96875l0 -5.84375l2.90625 0l0 13.84375l-2.78125 0zm5.4726257 0l0 -10.03125l2.90625 0l0 10.03125l-2.90625 0zm1.453125 -11.4375q-0.796875 0 -1.3125 -0.46875q-0.5 -0.46875 -0.5 -1.15625q0 -0.6875 0.5 -1.15625q0.515625 -0.46875 1.3125 -0.46875q0.8125 0 1.3125 0.4375q0.5 0.4375 0.5 1.140625q0 0.71875 -0.5 1.203125q-0.484375 0.46875 -1.3125 0.46875zm8.881165 15.203125q-1.421875 0 -2.734375 -0.34375q-1.3125 -0.34375 -2.1875 -1.03125l1.15625 -2.09375q0.625 0.53125 1.609375 0.828125q0.984375 0.3125 1.9375 0.3125q1.546875 0 2.234375 -0.6875q0.703125 -0.6875 0.703125 -2.0625l0 -1.5l0.1875 -2.515625l-0.03125 -2.546875l0 -2.15625l2.765625 0l0 8.359375q0 2.796875 -1.46875 4.109375q-1.453125 1.328125 -4.171875 1.328125zm-0.453125 -4.25q-1.390625 0 -2.53125 -0.609375q-1.125 -0.609375 -1.8125 -1.6875q-0.671875 -1.09375 -0.671875 -2.546875q0 -1.484375 0.671875 -2.578125q0.6875 -1.09375 1.8125 -1.6875q1.140625 -0.59375 2.53125 -0.59375q1.28125 0 2.25 0.515625q0.96875 0.515625 1.5 1.59375q0.546875 1.0625 0.546875 2.75q0 1.65625 -0.546875 2.734375q-0.53125 1.0625 -1.5 1.59375q-0.96875 0.515625 -2.25 0.515625zm0.578125 -2.390625q0.765625 0 1.359375 -0.296875q0.609375 -0.3125 0.9375 -0.875q0.34375 -0.5625 0.34375 -1.28125q0 -0.75 -0.34375 -1.296875q-0.328125 -0.5625 -0.9375 -0.859375q-0.59375 -0.3125 -1.359375 -0.3125q-0.765625 0 -1.359375 0.3125q-0.59375 0.296875 -0.9375 0.859375q-0.34375 0.546875 -0.34375 1.296875q0 0.71875 0.34375 1.28125q0.34375 0.5625 0.9375 0.875q0.59375 0.296875 1.359375 0.296875zm8.215607 2.875l0 -10.03125l2.90625 0l0 10.03125l-2.90625 0zm1.453125 -11.4375q-0.796875 0 -1.3125 -0.46875q-0.5 -0.46875 -0.5 -1.15625q0 -0.6875 0.5 -1.15625q0.515625 -0.46875 1.3125 -0.46875q0.8125 0 1.3125 0.4375q0.5 0.4375 0.5 1.140625q0 0.71875 -0.5 1.203125q-0.484375 0.46875 -1.3125 0.46875zm8.27179 11.59375q-1.78125 0 -2.765625 -0.90625q-0.984375 -0.90625 -0.984375 -2.703125l0 -8.796875l2.90625 0l0 8.765625q0 0.625 0.328125 0.96875q0.34375 0.34375 0.921875 0.34375q0.6875 0 1.171875 -0.359375l0.78125 2.046875q-0.4375 0.3125 -1.0625 0.484375q-0.625 0.15625 -1.296875 0.15625zm-5.296875 -7.734375l0 -2.234375l6.953125 0l0 2.234375l-6.953125 0zm15.4592285 7.578125l0 -1.953125l-0.1875 -0.4375l0 -3.5q0 -0.9375 -0.578125 -1.453125q-0.5625 -0.53125 -1.734375 -0.53125q-0.796875 0 -1.578125 0.25q-0.765625 0.25 -1.3125 0.6875l-1.046875 -2.03125q0.828125 -0.578125 1.984375 -0.890625q1.15625 -0.328125 2.34375 -0.328125q2.296875 0 3.5625 1.09375q1.265625 1.078125 1.265625 3.359375l0 5.734375l-2.71875 0zm-3.0625 0.15625q-1.171875 0 -2.015625 -0.40625q-0.84375 -0.40625 -1.296875 -1.09375q-0.4375 -0.6875 -0.4375 -1.546875q0 -0.890625 0.4375 -1.5625q0.4375 -0.671875 1.390625 -1.046875q0.953125 -0.390625 2.484375 -0.390625l2.671875 0l0 1.6875l-2.359375 0q-1.015625 0 -1.40625 0.34375q-0.375 0.328125 -0.375 0.84375q0 0.546875 0.4375 0.875q0.4375 0.328125 1.203125 0.328125q0.71875 0 1.296875 -0.34375q0.578125 -0.34375 0.84375 -1.015625l0.453125 1.34375q-0.328125 0.96875 -1.171875 1.484375q-0.828125 0.5 -2.15625 0.5zm8.417145 -0.15625l0 -13.84375l2.90625 0l0 13.84375l-2.90625 0zm15.879639 0.15625q-1.71875 0 -3.015625 -0.671875q-1.296875 -0.671875 -2.015625 -1.84375q-0.703125 -1.171875 -0.703125 -2.65625q0 -1.515625 0.703125 -2.671875q0.703125 -1.171875 1.90625 -1.828125q1.21875 -0.671875 2.75 -0.671875q1.46875 0 2.65625 0.625q1.1875 0.625 1.875 1.796875q0.6875 1.15625 0.6875 2.78125q0 0.171875 -0.015625 0.390625q-0.015625 0.203125 -0.03125 0.390625l-8.15625 0l0 -1.6875l6.625 0l-1.125 0.5q0 -0.78125 -0.328125 -1.359375q-0.3125 -0.578125 -0.875 -0.90625q-0.546875 -0.328125 -1.296875 -0.328125q-0.75 0 -1.328125 0.328125q-0.5625 0.328125 -0.875 0.921875q-0.3125 0.578125 -0.3125 1.375l0 0.453125q0 0.828125 0.359375 1.453125q0.359375 0.625 1.015625 0.953125q0.671875 0.3125 1.578125 0.3125q0.796875 0 1.390625 -0.234375q0.609375 -0.25 1.125 -0.734375l1.546875 1.6875q-0.6875 0.78125 -1.734375 1.203125q-1.046875 0.421875 -2.40625 0.421875zm12.88147 -10.34375q1.203125 0 2.140625 0.484375q0.9375 0.46875 1.484375 1.453125q0.546875 0.96875 0.546875 2.5l0 5.75l-2.921875 0l0 -5.296875q0 -1.21875 -0.53125 -1.796875q-0.53125 -0.578125 -1.5 -0.578125q-0.6875 0 -1.234375 0.296875q-0.546875 0.28125 -0.859375 0.890625q-0.3125 0.59375 -0.3125 1.515625l0 4.96875l-2.90625 0l0 -10.03125l2.78125 0l0 2.78125l-0.53125 -0.84375q0.546875 -1.015625 1.546875 -1.546875q1.015625 -0.546875 2.296875 -0.546875zm12.9539795 10.1875l0 -1.953125l-0.1875 -0.4375l0 -3.5q0 -0.9375 -0.578125 -1.453125q-0.5625 -0.53125 -1.734375 -0.53125q-0.796875 0 -1.578125 0.25q-0.765625 0.25 -1.3125 0.6875l-1.046875 -2.03125q0.828125 -0.578125 1.984375 -0.890625q1.15625 -0.328125 2.34375 -0.328125q2.296875 0 3.5625 1.09375q1.265625 1.078125 1.265625 3.359375l0 5.734375l-2.71875 0zm-3.0625 0.15625q-1.171875 0 -2.015625 -0.40625q-0.84375 -0.40625 -1.296875 -1.09375q-0.4375 -0.6875 -0.4375 -1.546875q0 -0.890625 0.4375 -1.5625q0.4375 -0.671875 1.390625 -1.046875q0.953125 -0.390625 2.484375 -0.390625l2.671875 0l0 1.6875l-2.359375 0q-1.015625 0 -1.40625 0.34375q-0.375 0.328125 -0.375 0.84375q0 0.546875 0.4375 0.875q0.4375 0.328125 1.203125 0.328125q0.71875 0 1.296875 -0.34375q0.578125 -0.34375 0.84375 -1.015625l0.453125 1.34375q-0.328125 0.96875 -1.171875 1.484375q-0.828125 0.5 -2.15625 0.5zm14.354645 0q-1.328125 0 -2.28125 -0.5625q-0.953125 -0.5625 -1.453125 -1.703125q-0.5 -1.15625 -0.5 -2.90625q0 -1.78125 0.53125 -2.90625q0.53125 -1.140625 1.46875 -1.703125q0.953125 -0.5625 2.234375 -0.5625q1.40625 0 2.53125 0.640625q1.140625 0.625 1.796875 1.78125q0.671875 1.15625 0.671875 2.75q0 1.5625 -0.671875 2.71875q-0.65625 1.15625 -1.796875 1.8125q-1.125 0.640625 -2.53125 0.640625zm-5.9375 -0.15625l0 -13.84375l2.90625 0l0 5.84375l-0.1875 2.96875l0.0625 2.984375l0 2.046875l-2.78125 0zm5.421875 -2.234375q0.734375 0 1.296875 -0.328125q0.578125 -0.34375 0.921875 -0.96875q0.34375 -0.625 0.34375 -1.484375q0 -0.875 -0.34375 -1.484375q-0.34375 -0.625 -0.921875 -0.953125q-0.5625 -0.34375 -1.296875 -0.34375q-0.71875 0 -1.296875 0.34375q-0.578125 0.328125 -0.921875 0.953125q-0.328125 0.609375 -0.328125 1.484375q0 0.859375 0.328125 1.484375q0.34375 0.625 0.921875 0.96875q0.578125 0.328125 1.296875 0.328125zm7.4509583 2.234375l0 -13.84375l2.90625 0l0 13.84375l-2.90625 0zm10.599915 0.15625q-1.71875 0 -3.015625 -0.671875q-1.296875 -0.671875 -2.015625 -1.84375q-0.703125 -1.171875 -0.703125 -2.65625q0 -1.515625 0.703125 -2.671875q0.703125 -1.171875 1.90625 -1.828125q1.21875 -0.671875 2.75 -0.671875q1.46875 0 2.65625 0.625q1.1875 0.625 1.875 1.796875q0.6875 1.15625 0.6875 2.78125q0 0.171875 -0.015625 0.390625q-0.015625 0.203125 -0.03125 0.390625l-8.15625 0l0 -1.6875l6.625 0l-1.125 0.5q0 -0.78125 -0.328125 -1.359375q-0.3125 -0.578125 -0.875 -0.90625q-0.546875 -0.328125 -1.296875 -0.328125q-0.75 0 -1.328125 0.328125q-0.5625 0.328125 -0.875 0.921875q-0.3125 0.578125 -0.3125 1.375l0 0.453125q0 0.828125 0.359375 1.453125q0.359375 0.625 1.015625 0.953125q0.671875 0.3125 1.578125 0.3125q0.796875 0 1.390625 -0.234375q0.609375 -0.25 1.125 -0.734375l1.546875 1.6875q-0.6875 0.78125 -1.734375 1.203125q-1.046875 0.421875 -2.40625 0.421875zm19.647095 -10.34375q1.1875 0 2.109375 0.484375q0.921875 0.46875 1.453125 1.453125q0.53125 0.96875 0.53125 2.5l0 5.75l-2.90625 0l0 -5.296875q0 -1.21875 -0.5 -1.796875q-0.5 -0.578125 -1.421875 -0.578125q-0.640625 0 -1.140625 0.296875q-0.5 0.28125 -0.78125 0.859375q-0.28125 0.578125 -0.28125 1.484375l0 5.03125l-2.90625 0l0 -5.296875q0 -1.21875 -0.5 -1.796875q-0.484375 -0.578125 -1.40625 -0.578125q-0.625 0 -1.140625 0.296875q-0.5 0.28125 -0.78125 0.859375q-0.28125 0.578125 -0.28125 1.484375l0 5.03125l-2.90625 0l0 -10.03125l2.78125 0l0 2.734375l-0.53125 -0.796875q0.53125 -1.03125 1.484375 -1.5625q0.96875 -0.53125 2.203125 -0.53125q1.375 0 2.40625 0.703125q1.046875 0.703125 1.375 2.140625l-1.03125 -0.28125q0.515625 -1.1875 1.625 -1.875q1.109375 -0.6875 2.546875 -0.6875zm11.770081 10.34375q-1.71875 0 -3.015625 -0.671875q-1.296875 -0.671875 -2.015625 -1.84375q-0.703125 -1.171875 -0.703125 -2.65625q0 -1.515625 0.703125 -2.671875q0.703125 -1.171875 1.90625 -1.828125q1.21875 -0.671875 2.75 -0.671875q1.46875 0 2.65625 0.625q1.1875 0.625 1.875 1.796875q0.6875 1.15625 0.6875 2.78125q0 0.171875 -0.015625 0.390625q-0.015625 0.203125 -0.03125 0.390625l-8.15625 0l0 -1.6875l6.625 0l-1.125 0.5q0 -0.78125 -0.328125 -1.359375q-0.3125 -0.578125 -0.875 -0.90625q-0.546875 -0.328125 -1.296875 -0.328125q-0.75 0 -1.328125 0.328125q-0.5625 0.328125 -0.875 0.921875q-0.3125 0.578125 -0.3125 1.375l0 0.453125q0 0.828125 0.359375 1.453125q0.359375 0.625 1.015625 0.953125q0.671875 0.3125 1.578125 0.3125q0.796875 0 1.390625 -0.234375q0.609375 -0.25 1.125 -0.734375l1.546875 1.6875q-0.6875 0.78125 -1.734375 1.203125q-1.046875 0.421875 -2.40625 0.421875zm12.88147 -10.34375q1.203125 0 2.140625 0.484375q0.9375 0.46875 1.484375 1.453125q0.546875 0.96875 0.546875 2.5l0 5.75l-2.921875 0l0 -5.296875q0 -1.21875 -0.53125 -1.796875q-0.53125 -0.578125 -1.5 -0.578125q-0.6875 0 -1.234375 0.296875q-0.546875 0.28125 -0.859375 0.890625q-0.3125 0.59375 -0.3125 1.515625l0 4.96875l-2.90625 0l0 -10.03125l2.78125 0l0 2.78125l-0.53125 -0.84375q0.546875 -1.015625 1.546875 -1.546875q1.015625 -0.546875 2.296875 -0.546875zm10.907043 10.34375q-1.78125 0 -2.765625 -0.90625q-0.984375 -0.90625 -0.984375 -2.703125l0 -8.796875l2.90625 0l0 8.765625q0 0.625 0.328125 0.96875q0.34375 0.34375 0.921875 0.34375q0.6875 0 1.171875 -0.359375l0.78125 2.046875q-0.4375 0.3125 -1.0625 0.484375q-0.625 0.15625 -1.296875 0.15625zm-5.296875 -7.734375l0 -2.234375l6.953125 0l0 2.234375l-6.953125 0z" fill-rule="nonzero"/></g></svg>