<svg id="Layer_1" data-name="Layer 1" xmlns="http://www.w3.org/2000/svg" viewBox="0 0 137 80"><defs><style>.cls-1{fill:#fff;}</style></defs><title>bbt_logo</title><path class="cls-1" d="M210,291.5A39.5,39.5,0,1,1,249.5,252,39.54,39.54,0,0,1,210,291.5Z" transform="translate(-170 -212)"/><path d="M210,213a39,39,0,1,1-39,39,39,39,0,0,1,39-39m0-1a40,40,0,1,0,40,40,40,40,0,0,0-40-40Z" transform="translate(-170 -212)"/><path d="M267,291.5A39.5,39.5,0,1,1,306.5,252,39.54,39.54,0,0,1,267,291.5Z" transform="translate(-170 -212)"/><path d="M267,213a39,39,0,1,1-39,39,39,39,0,0,1,39-39m0-1a40,40,0,1,0,40,40,40,40,0,0,0-40-40Z" transform="translate(-170 -212)"/></svg>