<svg version="1.1" viewBox="220.0 135.0 490.0 280.0" fill="none" stroke="none" stroke-linecap="square" stroke-miterlimit="10" xmlns:xlink="http://www.w3.org/1999/xlink" xmlns="http://www.w3.org/2000/svg"><clipPath id="g15e9c243a5f_0_364.0"><path d="m0 0l960.0 0l0 540.0l-960.0 0l0 -540.0z" clip-rule="nonzero"/></clipPath><g clip-path="url(#g15e9c243a5f_0_364.0)"><path fill="#ffffff" d="m0 0l960.0 0l0 540.0l-960.0 0z" fill-rule="evenodd"/><path fill="#000000" fill-opacity="0.0" d="m370.6063 21.96588l231.14963 0l0 504.18896l-231.14963 0z" fill-rule="evenodd"/><path fill="#000000" d="m429.6063 414.96588l0 -247.20312l40.40625 38.40625l-88.40625 0l0 -71.203125l142.40628 0l0 280.0l-94.40628 0z" fill-rule="nonzero"/><path fill="#000000" fill-opacity="0.0" d="m433.77692 349.08398l93.57477 0l0 67.87402l-93.57477 0z" fill-rule="evenodd"/><path fill="#ffe6a7" d="m464.5738 369.1846l10.0625 0l0 29.859375l-10.0625 0l0 -29.859375zm-9.296875 29.859375l-10.0625 0l0 -29.859375l10.0625 0l0 29.859375zm9.984375 -11.0l-10.671875 0l0 -8.28125l10.671875 0l0 8.28125zm14.248688 11.0l0 -29.859375l14.375 0q4.171875 0 7.21875 1.375q3.0625 1.359375 4.71875 3.90625q1.65625 2.53125 1.65625 5.984375q0 3.453125 -1.65625 5.953125q-1.65625 2.484375 -4.71875 3.8125q-3.046875 1.328125 -7.21875 1.328125l-8.796875 0l4.484375 -4.140625l0 11.640625l-10.0625 0zm17.859375 0l-7.328125 -10.875l10.65625 0l7.421875 10.875l-10.75 0zm-7.796875 -10.53125l-4.484375 -4.5625l8.15625 0q2.078125 0 3.078125 -0.9375q1.015625 -0.953125 1.015625 -2.5625q0 -1.625 -1.015625 -2.5625q-1.0 -0.9375 -3.078125 -0.9375l-8.15625 0l4.484375 -4.5625l0 16.125z" fill-rule="nonzero"/></g></svg>