<svg xmlns="http://www.w3.org/2000/svg" viewBox="0 0 743.9 108.53"><defs><style>.cls-1{fill:#2b2f34;}.cls-2{fill:#fc8529;}.cls-3{fill:#1d3a53;}</style></defs><title>__Matrix42-Blue</title><g id="Layer_3" data-name="Layer 3"><path class="cls-1" d="M172.15,1.6,132.72,108.53h36.71L173.27,96h38.47l3.85,12.5h36.71L212.87,1.6Zm9.78,66.21,10.58-34.46,10.58,34.46ZM556.68,53.54,590,1.6H551.71l-17,30.46L517.41,1.6h-38l33.34,52.1L477,108.53h38.15l19.56-32.7,19.56,32.7h38.15ZM63.48,52.9,44.72,1.6H0V108.53H32.38V44.24l23.88,64.28H70.69L94.58,44.24v64.28H127V1.6H82.24Zm374.58,55.63h32.38V1.6H438.06Zm-9.12-70.21c0-20-13.47-36.71-38.47-36.71H333.4V108.53h32.38V74.86h11.7l14.75,33.66H429.1L409.7,70.69C418.2,66.53,428.94,56.75,428.94,38.31Zm-43.44,8.34H365.78V29.82h19.72c5.45,0,10.58,2.56,10.58,8.33C396.07,44.08,390.95,46.65,385.49,46.65ZM236.26,29.82H265v78.71h32.38V29.82h28.53V1.6H236.26Z"/><path class="cls-2" d="M645.83,1.6H600.95L567.67,53.52l24.42,37.86h24.84v17.15h28.9V91.38h12.35V63.16H645.83Zm-28.9,61.56H595.3L616.93,29.5Zm92.66,18.92C734,62.52,743.1,50.66,743.1,35.75,743.1,14.1,726.43,0,701.58,0c-16,0-30.78,6.09-41,18l17.31,19.4c6.57-6.73,14.11-10.58,23.25-10.58,6.73,0,11.38,4,11.38,9.3,0,8.82-5,13.31-48.09,48.1v24.36H743.9V82.08Z"/><path class="cls-3" d="M172.15,1.6,132.72,108.53h36.71L173.27,96h38.47l3.85,12.5h36.71L212.87,1.6Zm9.78,66.21,10.58-34.46,10.58,34.46ZM556.68,53.54,590,1.6H551.71l-17,30.46L517.41,1.6h-38l33.34,52.1L477,108.53h38.15l19.56-32.7,19.56,32.7h38.15ZM63.48,52.9,44.72,1.6H0V108.53H32.38V44.24l23.88,64.28H70.69L94.58,44.24v64.28H127V1.6H82.24Zm374.58,55.63h32.38V1.6H438.06Zm-9.12-70.21c0-20-13.47-36.71-38.47-36.71H333.4V108.53h32.38V74.86h11.7l14.75,33.66H429.1L409.7,70.69C418.2,66.53,428.94,56.75,428.94,38.31Zm-43.44,8.34H365.78V29.82h19.72c5.45,0,10.58,2.56,10.58,8.33C396.07,44.08,390.95,46.65,385.49,46.65ZM236.26,29.82H265v78.71h32.38V29.82h28.53V1.6H236.26Z"/><path class="cls-2" d="M645.83,1.6H600.95L567.67,53.52l24.42,37.86h24.84v17.15h28.9V91.38h12.35V63.16H645.83Zm-28.9,61.56H595.3L616.93,29.5Zm92.66,18.92C734,62.52,743.1,50.66,743.1,35.75,743.1,14.1,726.43,0,701.58,0c-16,0-30.78,6.09-41,18l17.31,19.4c6.57-6.73,14.11-10.58,23.25-10.58,6.73,0,11.38,4,11.38,9.3,0,8.82-5,13.31-48.09,48.1v24.36H743.9V82.08Z"/></g></svg>